<svg viewBox="0 0 1024 1024" xmlns="http://www.w3.org/2000/svg" width="128" height="128"><path d="M937.339 240.996c-15.137-23.79-46.146-30.274-69.926-15.138-23.793 15.138-30.282 46.133-15.137 69.919a395.033 395.033 0 0 1 63.437 216.26c0 222.741-180.948 403.677-403.706 403.677-222.773 0-403.722-180.935-403.722-403.677 0.101-147.964 81.097-284.029 211.12-354.675 130.023-70.641 288.266-64.556 412.481 15.874a50.218 50.218 0 0 0 38.124 7.051 50.27 50.27 0 0 0 31.802-22.19 50.448 50.448 0 0 0 6.959-38.11 50.501 50.501 0 0 0-22.1-31.811C631.337-12.136 433.613-19.576 271.173 68.772 108.726 157.119 7.547 327.138 7.356 512.038c0 278.243 226.369 504.593 504.652 504.593 278.258 0 504.637-226.35 504.637-504.593-0.001-96.598-27.399-190.306-79.306-271.042zM727.196 309.4c-19.574-19.566-51.345-19.566-70.91 0L512.458 453.11 368.201 308.754c-19.567-19.571-51.331-19.571-70.903 0-19.613 19.615-19.613 51.374 0 70.949L441.951 523.57l-143.79 143.646c-19.61 19.617-19.61 51.383 0 70.954 19.575 19.571 51.345 19.571 70.962 0l143.518-144.291 143.597 142.815c19.575 19.571 50.255 20.694 69.828 1.087 19.613-19.571 19.613-51.337 0-70.908L582.719 523.42l143.385-144.153c19.575-19.616 20.703-50.251 1.092-69.867z"/></svg>