<svg viewBox="0 0 1298 1024" xmlns="http://www.w3.org/2000/svg" width="128" height="128"><path d="M649.014085 337.126761c-129.802817 0-236.169014 106.366197-236.169015 236.169014 0 129.802817 106.366197 236.169014 236.169015 236.169014 129.802817 0 236.169014-106.366197 236.169014-236.169014 0-129.802817-106.366197-236.169014-236.169014-236.169014z m0 0"/><path d="M1213.295775 160.450704H968.112676C953.690141 120.788732 910.422535 0 843.71831 0H452.507042c-61.295775 0-109.971831 120.788732-124.394366 160.450704H82.929577C37.859155 160.450704 0 200.112676 0 248.788732v686.87324c0 48.676056 37.859155 88.338028 82.929577 88.338028h1130.366198c46.873239 0 82.929577-39.661972 82.929577-88.338028V248.788732c1.802817-48.676056-36.056338-88.338028-82.929577-88.338028zM649.014085 867.15493c-162.253521 0-293.859155-131.605634-293.859155-293.859155S486.760563 279.43662 649.014085 279.43662s293.859155 131.605634 293.859154 293.859155S811.267606 867.15493 649.014085 867.15493z m421.859154-530.028169c-27.042254 0-48.676056-21.633803-48.676056-48.676057 0-27.042254 21.633803-48.676056 48.676056-48.676056 27.042254 0 48.676056 21.633803 48.676057 48.676056 0 27.042254-21.633803 48.676056-48.676057 48.676057z m0 0"/><path d="M288.450704 84.732394c0 18.028169-14.422535 32.450704-32.450704 32.450705H108.169014c-18.028169 0-32.450704-14.422535-32.450704-32.450705S90.140845 52.28169 108.169014 52.28169h147.830986c18.028169 0 32.450704 14.422535 32.450704 32.450704z m0 0"/></svg>