<svg viewBox="0 0 1283 1024" xmlns="http://www.w3.org/2000/svg" width="128" height="128"><path d="M0 646.665762h146.849754v374.908909h68.691574V646.665762h146.849754v-68.613337H0z m741.055339-68.613337H559.15567a86.060058 86.060058 0 0 0-86.060058 86.060058v271.871548a86.060058 86.060058 0 0 0 86.060058 86.060059h181.899669a86.060058 86.060058 0 0 0 86.060058-86.060059V663.877774a86.060058 86.060058 0 0 0-86.060058-86.060058z m17.133775 357.696897a16.742593 16.742593 0 0 1-5.00713 12.126645 16.977302 16.977302 0 0 1-12.126645 5.085367H559.15567a16.977302 16.977302 0 0 1-12.126644-5.085367 16.742593 16.742593 0 0 1-5.007131-12.126645V663.877774a17.133775 17.133775 0 0 1 17.133775-17.212012h181.899669a17.133775 17.133775 0 0 1 17.133775 17.212012v271.871548z m496.331828-332.583007a85.59064 85.59064 0 0 0-60.71146-25.11389H958.396105v443.522246h68.691573v-194.495732h166.721804a86.060058 86.060058 0 0 0 86.060059-86.060058v-77.141107a85.59064 85.59064 0 0 0-25.11389-60.711459z m-43.499448 138.087275a17.212012 17.212012 0 0 1-17.212012 17.133775h-166.721804V646.665762h166.721804a16.742593 16.742593 0 0 1 12.126645 5.007131 17.133775 17.133775 0 0 1 5.085367 12.204881z m-887.983329-460.03013L629.646682 5.205382a18.072612 18.072612 0 0 1 24.800944-0.547655c4.381239 4.068294 223.756152 201.537009 309.033846 278.286934 13.378427 11.34428 9.857789 33.563423-6.963041 33.563423H335.243046c-10.561916 0-24.175053-20.106759-12.204881-35.284624z"/></svg>