<svg viewBox="0 0 1024 1024" xmlns="http://www.w3.org/2000/svg" width="128" height="128"><path d="M237.44 943.36H101.12a94.08 94.08 0 0 1-94.08-94.08V713.6a94.08 94.08 0 0 1 94.08-94.72h136.32a94.08 94.08 0 0 1 94.08 94.72v135.68a94.08 94.08 0 0 1-94.08 94.08zM101.12 682.24a31.36 31.36 0 0 0-31.36 31.36v135.68a31.36 31.36 0 0 0 31.36 31.36h136.32a30.72 30.72 0 0 0 30.72-31.36V713.6a30.72 30.72 0 0 0-30.72-31.36z m478.72 261.12H444.16a94.08 94.08 0 0 1-94.08-94.08V713.6a94.08 94.08 0 0 1 94.08-94.72h135.68a94.08 94.08 0 0 1 94.08 94.72v135.68a94.08 94.08 0 0 1-94.08 94.08zM444.16 682.24a31.36 31.36 0 0 0-31.36 31.36v135.68a31.36 31.36 0 0 0 31.36 31.36h135.68a31.36 31.36 0 0 0 31.36-31.36V713.6a31.36 31.36 0 0 0-31.36-31.36z m478.72 261.12H786.56a94.08 94.08 0 0 1-94.08-94.08V713.6a94.08 94.08 0 0 1 94.08-94.72h136.32a94.08 94.08 0 0 1 94.08 94.72v135.68a94.08 94.08 0 0 1-94.08 94.08zM786.56 682.24a30.72 30.72 0 0 0-30.72 31.36v135.68a30.72 30.72 0 0 0 30.72 31.36h136.32a31.36 31.36 0 0 0 31.36-31.36V713.6a31.36 31.36 0 0 0-31.36-31.36zM922.88 576H101.12a88.96 88.96 0 0 1-88.96-90.24V169.6a88.96 88.96 0 0 1 88.96-88.96h821.76a88.96 88.96 0 0 1 88.96 88.96v316.16A88.96 88.96 0 0 1 922.88 576zM101.12 133.12A36.48 36.48 0 0 0 64 169.6v316.16a36.48 36.48 0 0 0 36.48 36.48h822.4A36.48 36.48 0 0 0 960 485.76V169.6a36.48 36.48 0 0 0-36.48-36.48z"/></svg>