<svg viewBox="0 0 1024 1024" xmlns="http://www.w3.org/2000/svg" width="128" height="128"><path d="M923.788 311.723a16.93 16.93 0 0 0 13.544-12.699l20.319-169.336a14.386 14.386 0 0 0 0-12.701 13.557 13.557 0 0 0-13.55 0l-176.105 27.094a16.094 16.094 0 0 0-11.008 11.007 15.258 15.258 0 0 0 0 15.241l50.805 48.26L699.414 343.05c-11.69 11.454-11.882 30.216-0.429 41.906 0.145 0.144 0.284 0.289 0.429 0.428a27.947 27.947 0 0 0 23.711 8.468 25.398 25.398 0 0 0 17.777-10.16L856.05 260.078l50.801 48.258c3.79 1.6 8.066 1.6 11.853 0l5.084 3.387z m-872.082 8.468c-25.25-0.005-45.724 20.461-45.729 45.711 0 0.287 0.002 0.57 0.007 0.855v592.675c-0.004 25.389 20.334 46.107 45.722 46.568h578.279c25.72-0.259 46.356-21.313 46.102-47.032a46.528 46.528 0 0 0-0.38-5.464V360.832c0.466-25.246-19.617-46.091-44.866-46.56a60.677 60.677 0 0 0-0.855-0.007l-578.28 5.926z m626.543 351.374c-11.224 0-20.323 9.095-20.323 20.314 0 11.223 9.1 20.323 20.323 20.323h49.104c10.744 0.48 19.844-7.841 20.324-18.589 0.023-0.576 0.023-1.158 0-1.734 0-11.22-9.1-20.314-20.324-20.314h-49.104z m197.275 0h-49.108c-11.224 0-20.318 9.095-20.318 20.314 0 11.223 9.095 20.323 20.318 20.323h49.108c10.744 0.48 19.839-7.841 20.319-18.589 0.028-0.576 0.028-1.158 0-1.734 0.001-11.219-9.1-20.314-20.319-20.314z m126.157-27.098c-11.224 0-20.323 9.1-20.323 20.323v6.775h-6.774c-11.219 0-20.319 9.095-20.319 20.314 0 11.223 9.101 20.323 20.319 20.323h27.098c11.225 0 20.319-9.101 20.319-20.323v-27.09c-0.001-11.223-9.096-20.322-20.32-20.322z m-20.324-466.519v54.188c0 11.224 9.1 20.322 20.323 20.322 11.225 0 20.319-9.098 20.319-20.322v-54.188c0-11.221-9.095-20.321-20.319-20.321-11.223 0-20.323 9.101-20.323 20.321z m20.324 142.243c-11.224 0-20.323 9.098-20.323 20.319v54.188c0 11.223 9.1 20.322 20.323 20.322 11.225 0 20.319-9.099 20.319-20.322V340.51c0-11.221-9.095-20.319-20.319-20.319z m0 161.714c-11.224 0-20.323 9.1-20.323 20.322v54.189c0 11.225 9.1 20.319 20.323 20.319 11.225 0 20.319-9.095 20.319-20.319v-54.189c0-11.222-9.095-20.322-20.319-20.322zM974.583 22.159c-11.219 0-20.319 9.098-20.319 20.322 0 11.221 9.101 20.319 20.319 20.319h6.774v6.774c0 11.221 9.1 20.319 20.323 20.319 11.225 0 20.319-9.098 20.319-20.319V42.481c0-11.224-9.095-20.322-20.319-20.322h-27.097z m-99.059 0h-49.108c-11.224 0-20.318 9.098-20.318 20.322 0 11.221 9.095 20.319 20.318 20.319h49.108c10.744 0.478 19.839-7.844 20.319-18.587 0.028-0.576 0.028-1.156 0-1.732 0.001-11.224-9.1-20.322-20.319-20.322zM429.323 62.8c11.135 1.402 21.299-6.484 22.702-17.619 0.113-0.896 0.166-1.799 0.159-2.7 0.088-11.224-8.937-20.391-20.161-20.48a20.17 20.17 0 0 0-2.7 0.159H381.91c-11.224 0-20.322 9.098-20.322 20.322 0 11.221 9.098 20.319 20.322 20.319h47.413z m246.384 0h49.109c10.59 1.891 20.698-5.163 22.591-15.75 0.27-1.506 0.355-3.042 0.27-4.569 0-11.224-9.1-20.322-20.324-20.322h-49.104c-11.224 0-20.323 9.098-20.323 20.322 0 11.221 9.1 20.319 20.323 20.319h-2.542z m-145.625 0h49.95c10.742-0.457 19.084-9.538 18.632-20.283 0-0.012-0.004-0.024-0.004-0.036 0.475-10.746-7.847-19.841-18.59-20.319-0.01 0-0.023-0.003-0.038-0.003h-49.95c-9.551 2.033-16.305 10.563-16.09 20.322-0.215 9.758 6.539 18.289 16.09 20.319zM259.989 90.741c9.883-1.67 17.074-10.299 16.935-20.321v-6.772h6.772c11.214-0.459 19.932-9.919 19.476-21.131l-0.002-0.036c0.468-10.746-7.863-19.834-18.608-20.303a20.84 20.84 0 0 0-0.865-0.019H259.99c-11.224 0-20.321 9.098-20.321 20.322V70.42c-0.001 11.224 9.097 20.321 20.32 20.321z m0 161.717c11.222 0 20.319-9.098 20.319-20.322v-54.188c-0.007-11.221-9.11-20.313-20.332-20.307-11.214 0.005-20.302 9.093-20.309 20.307v54.188c0.001 11.224 9.099 20.322 20.322 20.322z m0 162.562c9.883-1.67 17.074-10.299 16.935-20.322V340.51c0.139-10.022-7.051-18.649-16.935-20.319-11.224 0-20.321 9.098-20.321 20.319v54.188c0 11.223 9.098 20.322 20.321 20.322z"/></svg>