<svg viewBox="0 0 1030 1024" xmlns="http://www.w3.org/2000/svg" width="128" height="128"><path d="M988.16 619.52L716.8 527.36V256c0-30.72-20.48-51.2-51.2-51.2H256c-30.72 0-51.2 20.48-51.2 51.2v409.6c0 30.72 20.48 51.2 51.2 51.2h271.36l92.16 271.36c5.12 20.48 25.6 35.84 46.08 35.84h5.12c20.48 0 35.84-10.24 46.08-30.72l97.28-189.44 189.44-97.28c20.48-10.24 30.72-30.72 25.6-51.2-5.12-15.36-20.48-30.72-40.96-35.84zM102.4 819.2c0-30.72-20.48-51.2-51.2-51.2s-51.2 20.48-51.2 51.2v51.2c0 30.72 20.48 51.2 51.2 51.2h51.2c30.72 0 51.2-20.48 51.2-51.2s-20.48-51.2-51.2-51.2M819.2 102.4c0 30.72 20.48 51.2 51.2 51.2s51.2-20.48 51.2-51.2V51.2c0-30.72-20.48-51.2-51.2-51.2h-51.2c-30.72 0-51.2 20.48-51.2 51.2s20.48 51.2 51.2 51.2M307.2 102.4h51.2c30.72 0 51.2-20.48 51.2-51.2s-20.48-51.2-51.2-51.2H307.2c-30.72 0-51.2 20.48-51.2 51.2s20.48 51.2 51.2 51.2m256 0h51.2c30.72 0 51.2-20.48 51.2-51.2s-20.48-51.2-51.2-51.2h-51.2c-30.72 0-51.2 20.48-51.2 51.2s20.48 51.2 51.2 51.2M102.4 0H51.2C20.48 0 0 20.48 0 51.2v51.2c0 30.72 20.48 51.2 51.2 51.2s51.2-20.48 51.2-51.2c30.72 0 51.2-20.48 51.2-51.2s-20.48-51.2-51.2-51.2M51.2 409.6c30.72 0 51.2-20.48 51.2-51.2V307.2c0-30.72-20.48-51.2-51.2-51.2s-51.2 20.48-51.2 51.2v51.2c0 30.72 20.48 51.2 51.2 51.2m0 256c30.72 0 51.2-20.48 51.2-51.2v-51.2c0-30.72-20.48-51.2-51.2-51.2s-51.2 20.48-51.2 51.2v51.2c0 30.72 20.48 51.2 51.2 51.2m696.32 56.32c-10.24 5.12-20.48 15.36-20.48 20.48l-46.08 92.16-81.92-245.76 245.76 81.92-97.28 51.2zM307.2 614.4V307.2h307.2v184.32L527.36 460.8c-20.48-5.12-40.96 0-51.2 10.24-15.36 20.48-20.48 40.96-10.24 56.32l25.6 87.04H307.2z m51.2 204.8H307.2c-30.72 0-51.2 20.48-51.2 51.2s20.48 51.2 51.2 51.2h51.2c30.72 0 51.2-20.48 51.2-51.2s-20.48-51.2-51.2-51.2M870.4 256c-30.72 0-51.2 20.48-51.2 51.2v51.2c0 30.72 20.48 51.2 51.2 51.2s51.2-20.48 51.2-51.2V307.2c0-30.72-20.48-51.2-51.2-51.2"/></svg>