<svg viewBox="0 0 1024 1024" xmlns="http://www.w3.org/2000/svg" width="128" height="128"><path d="M190.5 480.7c12.2 0 22-9.8 22-22v-58c0-12.2-9.9-22-22-22s-22 9.9-22 22v58c0 12.2 9.9 22 22 22z m0-174.1c12.2 0 22-9.9 22-22v-58c0-12.1-9.9-22-22-22s-22 9.9-22 22v58c0 12.2 9.9 22 22 22z m0-174.1c12.2 0 22-9.9 22-22v-7.3h7.3c12.1 0 22-9.9 22-22 0-12.2-9.9-22-22-22h-29.4c-12.1 0-22 9.9-22 22v29.3c0.1 12.1 10 22 22.1 22z m297.8-29.4H542c12.2 0 22-9.9 22-22 0-12.2-9.8-22-22-22h-53.7c-12.1 0-22 9.9-22 22s9.9 22 22 22z m161.1 0H703c12.2 0 22-9.9 22-22 0-12.2-9.9-22-22-22h-53.6c-12.1 0-22 9.9-22 22s9.8 22 22 22z m-322.1 0H381c12.2 0 22-9.9 22-22 0-12.2-9.8-22-22-22h-53.7c-12.1 0-22 9.9-22 22-0.1 12.1 9.8 22 22 22z m536.8-44h-53.6c-12.1 0-22 9.9-22 22s9.9 22 22 22h53.6c12.2 0 22-9.9 22-22 0-12.2-9.8-22-22-22z m136.8 0h-29.3c-12.1 0-22 9.9-22 22s9.9 22 22 22h7.3v7.3c0 12.2 9.9 22 22 22 12.2 0 22-9.9 22-22V81.1c0-12.2-9.9-22-22-22z m0 493.7c-12.2 0-22 9.9-22 22v58c0 12.2 9.9 22 22 22 12.2 0 22-9.8 22-22v-58c0-12.2-9.9-22-22-22z m0-174.2c-12.2 0-22 9.9-22 22v58c0 12.2 9.9 22 22 22 12.2 0 22-9.9 22-22v-58c0-12.1-9.9-22-22-22z m0-174.1c-12.2 0-22 9.9-22 22v58c0 12.2 9.9 22 22 22 12.2 0 22-9.8 22-22v-58c0-12.1-9.9-22-22-22z m0 522.3c-12.2 0-22 9.9-22 22v7.3h-7.3c-12.1 0-22 9.8-22 22s9.9 22 22 22h29.3c12.2 0 22-9.9 22-22v-29.3c0-12.1-9.9-22-22-22z m-136.8 29.4h-53.6c-12.1 0-22 9.8-22 22s9.9 22 22 22h53.6c12.2 0 22-9.9 22-22 0-12.2-9.8-22-22-22z m-161.1 0h-53.6c-12.1 0-22 9.8-22 22s9.9 22 22 22H703c12.2 0 22-9.9 22-22 0.1-12.2-9.7-22-22-22zM534.6 534.7H36.7C16.4 534.7 0 551.1 0 571.4v359.9C0 951.6 16.4 968 36.7 968h497.9c20.3 0 36.7-16.4 36.7-36.7V571.4c0-20.3-16.4-36.7-36.7-36.7zM498 894.4H73.5V608.1h424.4l0.1 286.3zM827.7 435c1.2-0.2 2.4-0.4 3.6-0.8 5.7-2.1 9.8-7.2 10.6-13.3l22.6-183.3c0.6-5.1-1.2-10.3-5-13.8-3.8-3.6-9-5.1-14.2-4.1l-181.4 35.1c-6 1.2-10.8 5.6-12.5 11.5-1.7 5.9 0.1 12.2 4.5 16.4l55.6 51.9L587 467.9c-12.2 13.1-11.5 33.6 1.6 45.9 7.3 6.8 16.9 9.6 26.1 8.5 7.4-0.9 14.4-4.3 19.8-10.1l124.6-133.5 55.6 51.9c3.6 3.5 8.3 5 13 4.4z m0 0"/></svg>