<svg viewBox="0 0 1024 1024" xmlns="http://www.w3.org/2000/svg" width="128" height="128"><path d="M234.315294 47.887059H46.08A46.08 46.08 0 0 0 0 93.967059v188.235294a46.08 46.08 0 0 0 46.08 46.08h188.235294a46.08 46.08 0 0 0 46.08-46.08V93.967059a46.08 46.08 0 0 0-46.08-46.08z m0 232.809412H47.284706V95.472941h185.524706zM234.315294 386.409412H46.08A46.08 46.08 0 0 0 0 432.188235v188.536471a46.08 46.08 0 0 0 46.08 45.778823h188.235294a46.08 46.08 0 0 0 46.08-45.778823v-188.536471a46.08 46.08 0 0 0-46.08-45.778823z m0 232.809412H47.284706V433.694118h185.524706zM45.778824 724.931765h188.53647a46.08 46.08 0 0 1 46.08 46.08v188.53647a45.778824 45.778824 0 0 1-45.778823 45.778824H46.08A46.08 46.08 0 0 1 0 959.247059v-188.536471a45.778824 45.778824 0 0 1 45.778824-45.778823z"/><path d="M349.364706 724.931765m60.235294 0l554.164706 0q60.235294 0 60.235294 60.235294l0 159.924706q0 60.235294-60.235294 60.235294l-554.164706 0q-60.235294 0-60.235294-60.235294l0-159.924706q0-60.235294 60.235294-60.235294Z"/><path d="M409.298824 664.395294h135.228235a23.792941 23.792941 0 1 0 0-47.284706h-135.228235a12.649412 12.649412 0 0 1-12.649412-12.649412v-159.924705a12.649412 12.649412 0 0 1 12.649412-12.649412 23.792941 23.792941 0 0 0 0-47.284706 60.235294 60.235294 0 0 0-60.235295 60.235294v159.924706a60.235294 60.235294 0 0 0 60.235295 59.632941zM963.764706 384.301176a23.792941 23.792941 0 0 0 0 47.284706 12.649412 12.649412 0 0 1 12.649412 12.649412v159.924706a12.649412 12.649412 0 0 1-12.649412 12.649412h-148.781177a23.792941 23.792941 0 1 0 0 47.284706H963.764706a60.235294 60.235294 0 0 0 60.235294-60.235294v-159.322353a60.235294 60.235294 0 0 0-60.235294-60.235295zM963.764706 47.887059H409.298824a60.235294 60.235294 0 0 0-60.235295 60.235294V268.047059a60.235294 60.235294 0 0 0 60.235295 60.235294h45.17647a23.792941 23.792941 0 0 0 0-47.284706h-45.17647a12.649412 12.649412 0 0 1-12.649412-12.649412V108.122353a12.649412 12.649412 0 0 1 12.649412-12.649412H963.764706a12.649412 12.649412 0 0 1 12.649412 12.649412V268.047059a12.649412 12.649412 0 0 1-12.649412 12.649412h-56.32a23.792941 23.792941 0 0 0 0 47.284705H963.764706a60.235294 60.235294 0 0 0 60.235294-60.235294v-159.623529a60.235294 60.235294 0 0 0-60.235294-60.235294z"/><path d="M645.421176 664.395294h86.136471a14.456471 14.456471 0 0 0 14.456471-14.45647v-247.868236a14.456471 14.456471 0 0 1 24.997647-10.541176l126.795294 128.602353a14.456471 14.456471 0 0 0 24.997647-10.24v-104.207059a14.456471 14.456471 0 0 0-4.216471-10.24l-230.098823-231.002353-229.797647 231.002353a14.456471 14.456471 0 0 0-4.216471 10.24V512a14.456471 14.456471 0 0 0 24.997647 10.24l126.192941-128a14.456471 14.456471 0 0 1 24.997647 10.24v246.663529a14.456471 14.456471 0 0 0 14.757647 13.251765z"/></svg>