<svg viewBox="0 0 1027 1024" xmlns="http://www.w3.org/2000/svg" width="128" height="128"><path d="M299.91424 1023.74912H162.46272c-69.28384-1.64352-125.1328-58.07104-125.1328-127.16032V127.1552C37.33504 57.05728 94.8224 0 165.57056 0h619.648c70.6816 0 128.24064 57.05728 128.24064 127.1552v227.83488a36.59776 36.59776 0 0 1-35.61984 37.55008c-17.664-6.82496-25.02656-15.8464-25.56416-36.05504-0.02048-0.64512-0.02048 0.64512 0 0v-227.84c0-29.73184-35.85024-67.2-66.14016-67.2H165.98016c-30.28992 0-65.92 36.82816-65.92 66.56v769.92c0 29.73184 29.22496 63.79008 59.52 63.79008h140.16c20.20864 0 36.76672 5.22752 36.76672 25.43616 0 20.20352-16.384 36.59776-36.59264 36.59776z"/><path d="M745.45152 286.72H207.47264c-29.97248 0-36.97152-4.77184-37.44256-24.98048a36.58752 36.58752 0 0 1 37.44768-37.44256h537.97376a36.59264 36.59264 0 0 1 37.44768 35.71712c0.48128 20.20352-25.06752 28.25216-37.44768 26.70592z m-201.46176 218.88H205.95712c-23.53664 0-35.50208-3.90144-36.03456-24.11008a36.59264 36.59264 0 0 1 37.5552-37.55008h338.02752a36.59264 36.59264 0 0 1 35.61472 37.5552c-0.52224 19.45088-10.4448 24.10496-37.13024 24.10496zM563.28192 581.6576c-15.05792-11.52-35.80928-9.70752-46.3104 4.03968l-145.92 190.91968c-10.50624 13.75744-6.81472 34.24256 8.25856 45.76256s28.2368 5.9136 40.66304-7.95648l145.90464-190.91456c13.97248-17.42848 12.47744-30.33088-2.59584-41.85088z"/><path d="M616.95488 826.03008c19.56352-6.1184 31.76448-22.7584 27.25376-37.15584l-62.55104-199.78752c-4.51072-14.39744-24.00768-21.08928-43.5712-14.98112-19.56864 6.12864-24.59136 11.81184-16.15872 33.46432l63.49824 201.30304c9.40032 15.70816 17.03424 19.712 31.52896 17.15712z"/><path d="M599.90016 818.80064c21.44256 4.1216 34.89792 5.65248 44.23168-17.52064l129.48992-321.62816c9.31328-23.168 1.46432-48.16384-17.54624-55.81824-19.02592-7.6544-27.05408 7.40352-38.88128 30.44352l-129.47968 321.64352c1.9456 23.04-6.83008 35.21536 12.1856 42.88z m320.94208-78.95552c-15.3856-9.39008-22.48192-3.41504-35.59424 7.7312l-88.51968 170.20416c-10.1888 9.74336-2.88256 27.28448 12.49792 36.67456 18.29888 9.81504 18.29888 4.13696 33.23392-4.68992l94.69952-170.72128c6.36928-12.2624-0.92672-29.81376-16.31744-39.19872z"/><path d="M895.01696 761.01632c0.25088 17.42336 6.56896 31.47264 14.11072 31.39584l104.67328-1.09568c7.54688-0.08704 13.45024-14.26944 13.18912-31.68256-0.256-17.42336-6.56896-31.47264-14.11584-31.40096l-104.66816 1.1008c-7.54176 0.07168-13.45024 14.25408-13.18912 31.68256z m-73.66144 200.69376c21.09952-2.90816 34.7392-30.31552 15.4624-61.50656l-59.14624-428.5696c-2.88256-32.55296-5.6576-39.30624-26.76224-36.39296-21.11488 2.9184-17.75104 25.17504-34.64704 47.24736l59.15648 428.58496c4.25984 30.86848 24.81664 53.53472 45.93664 50.6368zM286.12096 801.54624c0.24576 20.50048 0.3072 28.13952 12.83584 28.78464l103.95136-0.64512c13.28128-0.58368 15.44704-9.28256 15.18592-29.76768-0.25088-20.5056-4.67968-30.8992-14.336-31.40096H297.94816c-10.88 0-12.0832 12.52352-11.8272 33.02912z"/><path d="M912.80384 760.32m-30.83264 0a30.83264 30.83264 0 1 0 61.66528 0 30.83264 30.83264 0 1 0-61.66528 0Z"/></svg>