<svg viewBox="0 0 1024 1024" xmlns="http://www.w3.org/2000/svg" width="128" height="128"><path d="M512 1024C229.236 1024 0 794.764 0 512S229.236 0 512 0s512 229.236 512 512-229.236 512-512 512zM319.334 341.89l-80.447-80.447-46.22 46.22 80.446 80.447-77.024 77.024 46.22 46.22 77.01-77.024 73.63 73.616 46.207-46.22-73.602-73.616 77.024-77.024-46.22-46.22-77.024 77.024z m373.802 0l-80.447-80.447-46.22 46.22 80.447 80.447-77.025 77.024 46.206 46.22 77.039-77.024 73.616 73.616 46.206-46.22-73.602-73.616 77.024-77.024-46.22-46.22-77.024 77.024zM172.102 814.08l127.51-95.527L415.196 834.14l112.528-112.514L640.252 834.14l112.514-112.514 89.425 89.411 46.206-46.22-135.63-135.631-112.515 112.528-112.527-112.528L415.21 741.713 305.769 632.257 132.91 761.772l39.193 52.308z"/></svg>