<svg viewBox="0 0 1024 1024" xmlns="http://www.w3.org/2000/svg" width="128" height="128"><path d="M460.332346 10.667339c4.168567-3.225197 9.554646-4.434646 14.674646-3.096189l534.471559 137.796535a16.642016 16.642016 0 0 1 12.513764 16.682331v724.613039a16.642016 16.642016 0 0 1-12.513764 16.690394l-530.302992 116.929512a16.908094 16.908094 0 0 1-14.674646-3.096189 16.529134 16.529134 0 0 1-6.184315-13.594205l-4.176629-627.187906V24.261543c-0.266079-5.249008 2.152819-10.231937 6.192377-13.594204zM71.986394 782.376315l8.345197 8.345197h129.451338l8.337134 8.337134v54.368756l-8.337134 8.337133H9.272441l-8.337134-8.337133V197.841638l8.337134-8.345197h200.502425l8.337134 8.345197v50.055055l-8.337134 8.345197H80.331591l-8.345197 8.345197v209.637795h155.293228v-58.392189a12.981417 12.981417 0 0 1 2.684976-12.916913c3.096189-3.628346 7.804976-5.12 12.513764-4.17663a12.981417 12.981417 0 0 1 9.820725 8.748346l112.760944 112.760945a12.376693 12.376693 0 0 1 0 16.690394L248.13052 649.69978a13.255559 13.255559 0 0 1-16.690394 8.345196 13.255559 13.255559 0 0 1-8.337134-16.690393v-58.537323H71.986394v199.559055zM624.494866 336.710551L733.087244 520.385512 628.671496 699.891906l87.725354-20.858961L774.813228 582.954331l41.709859 66.745449 70.914015-16.553323-75.219653-121.106142 71.051086-116.929512-66.745448-16.690394-41.709859 71.051087-58.400252-91.901984-91.910047-20.858961z"/></svg>