<svg viewBox="0 0 1024 1024" xmlns="http://www.w3.org/2000/svg" width="128" height="128"><path d="M834.219 136.192l70.11 41.233-16.487 37.137c-12.356 20.617-4.096 45.33 16.487 57.72 20.616 12.356 45.363 4.13 57.753-16.487l41.233-70.11c12.356-20.616 4.096-45.397-16.486-57.753l-144.35-82.5c-20.617-12.357-45.363-4.13-57.72 16.52l-41.267 70.11c-12.356 20.616-4.096 45.363 16.487 57.72 20.616 12.356 45.397 4.13 57.753-16.487l16.487-37.103z m-103.117 177.39l74.274 41.2-206.234 358.844c-12.356 20.65-4.13 45.397 16.453 57.72 20.65 12.39 45.397 4.13 57.753-16.453l226.85-391.817c12.39-20.616 4.13-45.363-16.452-57.72l-144.35-82.5c-20.616-12.39-45.397-4.095-57.753 16.487l-226.85 391.782c-12.357 20.651-4.096 45.466 16.486 57.788 20.616 12.39 45.329 4.062 57.72-16.52l202.103-358.81z"/><path d="M533.129 655.872c0-24.815-16.521-41.233-37.138-45.397-24.746 0-41.233 16.52-45.329 37.137l-12.39 185.65c0 32.94 37.137 53.522 61.884 37.07l152.576-103.117c20.616-12.322 24.78-37.137 12.356-57.72-12.356-20.616-37.103-24.746-57.685-12.322l-86.63 57.72 12.356-99.021zM221.49 387.755h233.267c24.781 0 41.233-16.453 41.233-41.233 0-24.747-16.452-41.233-41.233-41.233H221.491c-24.746 0-41.199 16.486-41.199 41.233 0 24.78 16.487 41.233 41.2 41.233z m0 206.2h150.767c24.747 0 41.267-16.453 41.267-41.234 0-24.747-16.52-41.233-41.267-41.233H221.491c-24.746 0-41.199 16.486-41.199 41.233 0 24.78 16.487 41.233 41.2 41.233zM846.61 552.72v329.933c0 24.747-16.486 41.267-41.233 41.267H681.609c-24.747 0-41.234 16.52-41.234 41.267 0 24.815 16.487 41.2 41.234 41.2h123.767c70.11 0 123.7-53.522 123.7-123.734V552.72c0-24.747-16.453-41.233-41.234-41.233-24.747 0-41.233 20.685-41.233 41.233z"/><path d="M364.783 923.921H138.615c-24.712 0-41.198-16.52-41.198-41.267V140.288c0-20.617 16.486-41.233 41.198-41.233h477.73c24.781 0 41.234-16.486 41.234-41.233 0-24.78-16.453-41.233-41.233-41.233h-477.73c-70.11 0-123.7 53.59-123.7 123.699v742.366c0 70.212 53.59 123.733 123.7 123.733h226.167c24.747 0 41.233-16.384 41.233-41.199 0-20.65-20.65-41.267-41.233-41.267z"/></svg>