<svg viewBox="0 0 1024 1024" xmlns="http://www.w3.org/2000/svg" width="128" height="128"><path d="M1023.704765 95.970676c0-52.983672-42.987004-95.970676-95.970676-95.970676s-95.969653 42.987004-95.969653 95.970676c0 31.928145 15.744573 60.012755 39.73801 77.41406L731.108046 640.240093c-12.747313 0.623193-24.743519 3.686969-35.677535 8.747213L376.592154 324.494164c4.686738-11.246124 7.310492-23.586161 7.310492-36.582137 0-52.982649-42.985981-95.970676-95.969653-95.970676-52.983672 0-95.970676 42.988027-95.970676 95.970676 0 31.021496 14.932069 58.293603 37.738472 75.821797L90.930375 832.24182c-50.609604 2.686176-90.909409 44.238506-90.909409 95.47028 0 52.983672 42.985981 95.971699 95.970676 95.971699 52.983672 0 95.969653-42.988027 95.969653-95.971699 0-31.926098-15.744573-59.917588-39.674565-77.412013l138.270019-466.667069c15.61973-0.468674 30.052426-4.750183 42.924582-11.715821l316.339446 321.99423c-6.248301 12.683868-9.996668 26.741011-9.996668 41.863415 0 52.980602 42.985981 95.968629 95.969653 95.968629 52.982649 0 95.969653-42.988027 95.969653-95.968629 0-31.805348-15.620754-59.671995-39.424879-77.16335l140.456822-467.168489C983.40496 188.755803 1023.704765 147.205519 1023.704765 95.970676"/></svg>