<svg viewBox="0 0 1027 1024" xmlns="http://www.w3.org/2000/svg" width="128" height="128"><path d="M1003.808784 275.043584L750.030823 21.265623a80.821007 80.821007 0 0 0-112.071796 2.694034l-269.403356 269.403356 74.894133 71.122486 248.389894-248.389894 215.522685 215.522684-246.773474 250.545121 72.738906 72.738906 269.403356-269.403356a82.976234 82.976234 0 0 0 24.785108-53.880671 74.894133 74.894133 0 0 0-23.707495-56.574705zM335.688462 907.602664l-215.522685-215.522685 246.773474-251.083927-72.738906-72.738906-269.403356 269.403355a82.976234 82.976234 0 0 0-24.785108 53.880671 74.894133 74.894133 0 0 0 21.552268 53.880672l255.933188 257.010801a74.355326 74.355326 0 0 0 53.880671 21.552268 82.437427 82.437427 0 0 0 53.880671-24.785108l269.403356-269.403356-70.583679-71.122486z"/><path d="M712.314353 386.037767L639.575447 312.760054l-324.36164 324.900447 72.738906 72.738906 324.36164-324.36164z"/></svg>