<svg viewBox="0 0 1024 1024" xmlns="http://www.w3.org/2000/svg" width="128" height="128"><path d="M625.474 132.538v66.952h309.969v43.249H625.474v69.77h309.969v43.249H625.474v68.355h309.969v43.248H625.474v68.368h309.969v43.236H625.474v68.367h309.969v43.236H625.474v68.355h309.969v43.248H625.474v89.278H1024v-758.91H625.474zM0 108.81v806.369L577.043 1024V0L0 108.81z m161.893 203.7h84.41l53.97 238.555 67.81-238.554h58.129l83.02 351.56h-83.02l-33.21-219.022-55.347 241.348h-87.18L203.41 422.722 153.6 686.383H70.58l91.313-373.873z"/></svg>