<svg viewBox="0 0 1064 1024" xmlns="http://www.w3.org/2000/svg" width="128" height="128"><path d="M638.02469815 468.79486104h309.59727802a49.20379541 49.20379541 0 0 0 50.37537745-50.37537657V116.01077802a49.20379541 49.20379541 0 0 0-50.37537745-50.37537656H638.02469815a49.20379541 49.20379541 0 0 0-50.37537745 50.37537657v302.40870645c-3.7801749 25.18768828 21.56659541 50.37537656 50.37537745 50.37537656zM422.04057734 62.01430859H112.38968516A49.20379541 49.20379541 0 0 0 62.01430859 112.38968516v302.40870645a49.20379541 49.20379541 0 0 0 50.37537657 50.37537743h309.65089218a49.20379541 49.20379541 0 0 0 50.37537657-50.37537743V112.38968516c3.62109287-28.75516787-21.67382197-50.37537656-50.37537657-50.37537657z m0 493.20601787H112.38968516A49.20379541 49.20379541 0 0 0 62.01430859 605.59482412v305.97706494a49.20379541 49.20379541 0 0 0 50.37537657 50.37449766h309.65089218a49.20379541 49.20379541 0 0 0 50.37537657-50.37449766V609.215917c3.62109287-28.80878115-21.62020869-53.99559053-50.37537657-53.99559054z m525.58139883 0H638.02469815a49.20379541 49.20379541 0 0 0-50.37537745 50.37449766v302.40958536a49.20379541 49.20379541 0 0 0 50.37537745 50.37449765h309.59727802a49.20379541 49.20379541 0 0 0 50.37537745-50.37449765V605.59482412a51.49334531 51.49334531 0 0 0-50.37537745-50.37449766z m-6.97499736 349.21572451H641.59217773V612.83700987h299.05480108z"/></svg>