<svg viewBox="0 0 1024 1024" xmlns="http://www.w3.org/2000/svg" width="128" height="128"><path d="M133.404444 1024h-102.4C14.222222 1024 0.284444 1010.062222 0.284444 993.28V645.12c0-16.782222 13.937778-30.72 30.72-30.72h102.4c16.782222 0 30.72 13.937778 30.72 30.72v348.16c0 16.782222-13.937778 30.72-30.72 30.72z m0 0M419.84 1024h-102.4c-16.782222 0-30.72-13.937778-30.72-30.72V440.32c0-16.782222 13.937778-30.72 30.72-30.72h102.4c17.066667 0 30.72 13.937778 30.72 30.72v552.96c0.284444 16.782222-13.653333 30.72-30.72 30.72z m286.72 0h-102.4c-16.782222 0-30.72-13.937778-30.72-30.72V593.92c0-16.782222 13.937778-30.72 30.72-30.72h102.4c16.782222 0 30.72 13.937778 30.72 30.72v399.36c0 16.782222-13.653333 30.72-30.72 30.72z m286.72 0h-102.4c-16.782222 0-30.72-13.937778-30.72-30.72V337.92c0-16.782222 13.937778-30.72 30.72-30.72h102.4c16.782222 0 30.72 13.937778 30.72 30.72v655.36c0 16.782222-13.937778 30.72-30.72 30.72z m0 0"/><path d="M1024 0l-209.635556 23.04 69.12 69.12-227.84 278.471111-236.373333-218.737778c-15.928889-14.791111-40.96-14.791111-57.457778-0.568889L14.222222 465.351111c-17.351111 15.928889-19.057778 42.951111-3.128889 60.302222 8.248889 9.102222 19.911111 13.937778 31.857778 13.937778 10.24 0 20.48-3.697778 28.728889-10.808889L389.688889 241.208889l241.208889 222.72c8.817778 8.248889 20.48 11.662222 31.857778 11.377778 11.662222-1.137778 22.471111-6.542222 30.151111-15.36l250.88-306.631111 57.457777 57.457777L1024 0z"/></svg>