<svg viewBox="0 0 1024 1024" xmlns="http://www.w3.org/2000/svg" width="128" height="128"><path d="M173.26 239.206h98.305v286.72h-32.768v40.96h131.072v-40.96H337.1v-286.72h98.304v40.96h32.768v-122.88h-327.68v122.88h32.768v-40.96z m376.833 88.474h327.68v81.92h-327.68v-81.92z m327.68 163.84v81.92h-327.68v-81.92h327.68z m0 157.286v81.92h-737.28v-81.92h737.28z m0 122.88v81.92h-737.28v-81.92h737.28z m-327.68-614.4h327.68v81.92h-327.68v-81.92z m409.6 845.579H58.573a40.96 40.96 0 0 1-40.96-40.96V60.785a40.96 40.96 0 0 1 40.96-40.96h901.12a40.96 40.96 0 0 1 40.96 40.96v901.12a40.96 40.96 0 0 1-40.96 40.96z m0-81.92v-819.2a40.96 40.96 0 0 0-40.96-40.96h-819.2a40.96 40.96 0 0 0-40.96 40.96v819.2a40.96 40.96 0 0 0 40.96 40.96h819.2a40.96 40.96 0 0 0 40.96-40.96z"/></svg>