<svg viewBox="0 0 1025 1024" xmlns="http://www.w3.org/2000/svg" width="128" height="128"><path d="M852.9 616.7L682.6 797.9h112v186.4h117.4V797.9h112zM877.7 275.4H588.8c-14.5 0-26.3 11.8-26.3 26.3s11.8 26.3 26.3 26.3H877.6c14.5 0 26.3-11.8 26.3-26.3 0-14.6-11.7-26.3-26.2-26.3zM903.9 485.4c0-14.5-11.8-26.3-26.3-26.3H588.8c-14.5 0-26.3 11.8-26.3 26.3s11.8 26.3 26.3 26.3H877.6c14.6 0 26.3-11.8 26.3-26.3zM588.8 643c-14.5 0-26.3 11.8-26.3 26.3s11.8 26.3 26.3 26.3h131.3c14.5 0 26.3-11.8 26.3-26.3S734.6 643 720.1 643H588.8z"/><path d="M154.6 859.9V748h265.5c29 0 52.5-23.5 52.5-52.5V327.9c0-29-23.5-52.5-52.5-52.5H154.6V163.5c0-37.6 30.4-68 68-68h654c37.6 0 68 30.4 68 68v426.9h53V139.7c0-55.2-44.8-100-100-100H201.6c-55.2 0-100 44.8-100 100v135.7H52.5c-29 0-52.5 23.5-52.5 52.5v367.6c0 29 23.5 52.5 52.5 52.5H101.6v135.7c0 55.2 44.8 100 100 100h402.3v-55.8H222.6c-37.6 0-68-30.5-68-68z m42.3-453.2l32.8 41 32.8-41h91.9L275.6 505.1l78.8 98.5h-91.9l-32.8-41-32.8 41h-91.9l78.8-98.5-78.8-98.5h91.9z"/></svg>